<svg xmlns="http://www.w3.org/2000/svg" version="1.1" xmlns:xlink="http://www.w3.org/1999/xlink" xmlns:svgjs="http://svgjs.dev/svgjs" viewBox="0 0 800 800">
	<g fill="none" stroke-width="1.25" stroke="hsl(193, 100%, 50%)" stroke-linecap="round" stroke-dasharray="150">
		<path d="M1075.29 697.51C1140.23 714.82 1182.81 732.62 1200.09 750.66 1192.1 768.49 1159.16 786.12 1104.93 803.04 951.38 834.33 779.76 857.67 637.75 866.71 554.43 864.77 543.24 841.18 591.86 793.42 687.05 736.47 793.27 663.58 884.36 586.99 955.85 531.9 987.34 503.62 981.63 519.6 947.06 587.93 889.13 704.84 820.99 855.15 742.08 1007 666.66 1130.81 601.97 1191.8 569.1 1192.8 539.68 1172.53 514.13 1131.64 488.52 1074.19 466.92 1002.42 449.61 921.41 432.3 838.9 419.69 761.07 411.58 693.51 403.41 640.56 399.61 605.39 399.83 589.46 399.23 617.54 411.66 707.94 430.57 829.21 438.72 957.78 439.63 1054.59 420.84 1101.77 373.19 1098.43 292 1043.72 175.14 953.83 38.67 838.38 -108.59 717.48 -239.83 605.2 -324.5 499.03 -344.36 411.93 -286.42 343.46 -169.79 285.18 -17.87 239.49 122.31 201.28 169.85 183.44 197.71 166.24 202.27 149.26 181.57 132.51 137.23 115.54 72.29 98.23 -8.01 80.92 -94.64 63.67 -179.71 46.71 -289.56 21.96 -348.47 -36.59 -176.68 -46.95 -10.84 -38.49 141.47 -8.4 250.42 44.39 304.02 103.31 301.18 174.51 258.29 244.59 183.23 289.11 104.21 302.78 38.07 270.08 -20.26 186.86 -52.45 59.01 -60.2 -94.93 -55.32 -241.57 -33.84 -351.68 -3.07 -393.15 13.8 -383.91 31.52 -353.84 49.44 -304.33 67.62 -240.19 85.51 -164.13 102.82 -81.62 120.13 -0.6 136.46 72.92 151.99 133.81 167.79 178.13 183.3 203.5 199.06 209.19 233.58 161.58 275.08 57.48 330.2 -68.99 397.96 -193.93 487.16 -279.8 598.85 -312.08 718.36 -292.03 847.09 -222.7 967.52 -122.25 1055.78 -0.28 1099.67 122.3 1082.12 232.61 1009.22 333.74 887.95 414.34 747.49 476.28 637.01 527.25 584.85 566.89 618.25 600.9 668.17 616.63 736.38 632.22 818.1 648.11 906.6 663.79 994.98 680.2 1075.29 697.51Q1075.29 697.51 1075.29 697.51" opacity="0.99">
		</path>
		<path d="M1045.83 688.87C1150.67 721.45 1167.17 748.26 1096.74 767.3 962.06 783.63 800.95 787.41 654.7 775.04 550.32 755.82 506.4 717.77 519.57 662.48 582.9 607.3 670.58 546.74 759.24 493.56 844.48 467.71 902.62 472.94 929.99 520.45 934.76 610.43 913.54 736.95 875.74 882.83 825.59 1019.24 771.01 1122.18 719.76 1164.4 665.88 1136.2 620.94 1038.31 588.36 891.92 555.77 740.31 537.08 621.96 529.51 562.83 519.31 573.56 514.62 643.31 508.29 748.15 489.63 870.11 457.18 974.52 402.2 1042.4 324.61 1070.93 219.69 1052.21 91.74 995.95 -39.62 909.85 -165.94 808.28 -263.19 705.07 -310.29 598.88 -295.59 504.32 -215.09 424.84 -92.73 351.06 49.83 291.03 171.93 242.56 229.79 196.59 206.68 157.83 101.84 125.25 -56.42 92.66 -212.66 67.79 -320.79 52.31 -358.08 39.34 -312.35 40.09 -202.24 57.4 -53.26 80.4 98.62 121.31 224.2 177.27 328.17 257.66 269.3 332.04 180.79 259.63 117.88 157.82 71.58 24.19 45.3 -121.66 25.85 -294.52 68.76 -259.55 114.23 -52.07 146.82 94.31 184.65 198.8 229.33 239.58 277.13 209.94 337.21 125.54 412.73 13.02 495.47 -108.97 595.43 -206.27 708.55 -262.32 817.89 -275.9 923.48 -242.5 1008.42 -173.94 1056.55 -78.05 1058.85 29.28 1006.99 134.68 915.34 240.19 792.68 331.9 667.58 407.59 581.35 476.43 554.15 531.93 603.99 577.05 724.68 619.45 887.51 656.28 1045.79 688.86Q1045.83 688.87 1045.83 688.87" opacity="0.73">
		</path>
		<path d="M1016.33 618.03C1116.91 648.58 1140.35 667.88 1086.1 675.27 970.81 681.04 823.44 672.31 678.7 648.31 560.38 621.92 489.43 581.57 469.1 531.76 497.16 489.28 557.36 450.27 630.85 426.24 714 430.91 783.6 466.88 831.72 539.74 866.07 643.96 876.4 772.83 867.54 908.9 847.72 1027.36 817.35 1109.39 782.96 1134.3 745.55 1097.41 710.01 1000.58 679.47 862.42 648.92 719.66 624.8 604.29 604.61 538.87 581.38 533.98 556.18 583.52 523.06 669.97 478.98 780.38 418.35 885.19 336.91 965.93 241.71 1019.21 128.26 1032.37 5.06 1009.56 -108.45 957.04 -204.87 882.78 -264.74 798.77 -276.22 705.16 -232.67 615.35 -136.73 535.31 -14.39 456.43 115.59 389.81 219.08 336.02 261.54 283.56 231.91 241.92 131.33 211.37 -16.36 180.82 -164.63 162.81 -274.55 157.65 -326.22 153.83 -304.71 164.87 -221.24 190.81 -94.08 217.9 48.74 257.41 180.67 303.94 288.6 340.87 357.63 371.28 388.38 383.77 383.59 366.55 354.83 317.18 315.62 232.1 264.24 119.55 219.35 -12.64 187.66 -145.44 157.45 -254.29 143.6 -321.23 145.88 -328.15 149.87 -274.53 167.43 -165.37 197.97 -22.62 228.52 115.54 270.61 218.59 324.23 267.28 379.55 254.17 448.97 189.54 532.11 93.47 616.75 -20.19 711.94 -121.67 810.41 -194.09 896.7 -235.15 969.33 -234.91 1014.16 -199.55 1023.46 -135.49 990.66 -52.62 914.54 36.93 814.43 133.81 699 224.47 594.22 303.81 533.13 380.75 528.99 445.05 592.44 496.9 714.13 547.11 868.59 587.47 1016.29 618.02Q1016.33 618.03 1016.33 618.03" opacity="0.91">
		</path>
		<path d="M986.79 500.24C1082.79 528.75 1112.08 543.42 1072.82 544.76 976.96 545.62 845.83 532.74 707.77 507.63 582.72 483.98 491.8 452.21 442.56 418.25 435.84 396.04 463.84 383.58 512.92 390.04 580.44 422.87 646.45 484.01 701.11 574.51 751.21 685.24 782.53 809.75 795.64 931.6 801.15 1030.52 792.8 1092.21 774.7 1101.52 753.99 1057.57 728.33 962.67 699.82 832.91 671.31 699.13 641.3 587.56 608.24 517.51 572.56 498.96 529.04 529.32 474.13 596.35 411.61 691.35 333.33 790.12 239.29 875.89 140.68 945.6 33.74 984 -71.13 990.94 -157.59 971.78 -219.39 928.39 -242.36 869.94 -222.8 798.28 -157.46 723.5 -53.3 652.55 63.85 579.08 178.75 514.4 263.61 461.16 291.86 408.08 256.79 366.63 160.79 338.11 23.63 309.6 -116.02 295.38 -225.79 294.68 -288.89 294.14 -289.05 306.96 -231.88 331.01 -129.79 352.55 -3.16 380.38 125.31 408.1 244.18 422.61 336.33 425.08 397.29 406.88 428.49 362.58 433.49 290.37 421.88 190.99 393.79 75.53 363.42 -48.79 338.64 -164.69 310.64 -252.64 294.51 -299.24 292.78 -291.7 291.26 -232.66 304.35 -126.89 332.86 6.87 361.37 136.64 403.95 237.33 459.24 292.3 514.75 294.01 582.74 248.56 660.16 170.54 734.35 69.58 811.67 -29.35 883.7 -110.39 957.23 -184.88 928.6 -136.42 810.24 -43.56 711.45 34.33 610.39 113.06 529.2 186.12 492.93 260.64 509.32 325.38 583.42 378.29 704.19 430.73 849.63 471.73 986.79 500.24Q986.79 500.24 986.79 500.24" opacity="0.77">
		</path>
		<path d="M956.74 360.75C1048.03 387.22 1082.31 400.36 1056.97 401.39 980.32 402.93 867.31 393.68 740.36 376.56 615.4 363.52 512.12 348.1 440.38 336.27 402.64 337.69 397.86 352.35 417.57 386.52 459.81 442.13 509.73 520.89 557.55 620.6 608.57 730.42 647.78 844.79 672.48 949.18 693.73 1027.87 700.8 1070.34 695.08 1065.97 687.67 1016.59 670.32 924.49 643.85 803.28 617.37 678.6 583.02 571.63 540.5 498.59 496.29 468.48 441.05 481.2 373.92 528.72 303.35 605.68 220.54 693.11 128.71 776.65 40.08 854.07 -47.84 909.48 -124.77 939.74 -179.19 949.74 -205.8 936.29 -195.62 905.39 -151.45 860.61 -71.91 807.56 33.63 752.82 141.18 693.27 239.12 637.98 305.55 590.72 320.67 542.72 281.03 504.52 189.74 478.05 62.96 451.57 -67.51 438.07 -175.2 436.15 -246.5 433.47 -265.06 440.6 -232.46 454.27 -156.76 463.12 -51.46 472.57 65.18 476.55 183.89 466.65 287.86 442.09 369.61 397.39 429.98 332.43 466.25 245.63 483.74 140.64 484.47 29.54 476.72 -81.63 467.71 -178 452.65 -244.92 443.71 -272.71 444.85 -252.82 445.05 -190 457.58 -88.39 484.05 36.28 510.53 157.49 549.7 254.95 599.43 314.55 648.22 329.14 705.32 301.74 766.26 242.46 821.15 157.48 872.51 66.85 912.58 -15.4 935.89 -87.54 937.64 -134.91 911.97 -155.82 864.91 -155.29 792.33 -131.94 701.19 -92.56 612.11 -39.92 530.55 19.09 474.26 78.01 461.06 141.02 494.69 198.42 576.21 246.82 694.11 295.71 829.96 334.27 956.74 360.75Q956.74 360.75 956.74 360.75" opacity="0.87">
		</path>
		<path d="M927.83 229.94C1013.63 254.38 1051.17 268.56 1037.65 273.96 978.82 280.46 884.57 280.51 772.07 277.38 653.51 279.51 545.97 284.03 459.97 295.94 398.37 320.12 364.86 358.41 355.37 414.19 368.23 485.14 394.27 573.02 425.21 673.61 464.43 775.96 498.82 875.67 523.89 960.55 549.28 1019.21 562.73 1044.08 563.36 1028.1 563.37 974.91 551.32 886.42 526.89 773.92 502.45 658.45 466.77 556.82 420.67 482.41 373.96 442.98 316.05 440.04 248.31 468.77 180.89 526.32 106.25 598.49 29.36 673.63 -39.23 750.54 -100.36 814.13 -145.25 859.6 -167.79 891.61 -163.25 903.33 -127.11 897.78 -66.55 880.04 19.06 851.05 119.71 816.05 214.3 775.44 294.64 734.5 344.04 697.09 348.13 658.41 305.63 625.86 219.83 601.43 103.63 576.99 -17.24 561.81 -121.46 554.4 -198.47 545.73 -232.6 542.21 -222.65 540.47 -173.62 533.11 -93.13 521.86 5.04 501.93 113.82 469.81 218.49 423.01 310.31 358.97 389.96 281.47 450.54 188.9 493.55 86.55 522.59 -14.03 539.92 -108.12 550.89 -183.58 554.99 -230.23 559.47 -241.19 568.39 -211.2 575.73 -146.22 590.74 -49.54 615.18 65.92 639.61 178.42 672.32 271.86 711.07 334.49 748.23 359.89 788.21 348.93 826.46 308.19 857.85 241.21 880.77 163.43 889.41 86.52 884.07 11.38 858.58 -47.51 810.96 -86.44 751.17 -110.18 675.48 -113.38 592.15 -99.9 519.42 -74.14 460.83 -38.42 429.71 1.79 437.66 47.27 485.68 91.68 572.11 131.27 685.76 171.96 811.58 205.5 927.79 229.93Q927.83 229.94 927.83 229.94" opacity="0.24">
		</path>
		<path d="M898.29 135.6C978.53 158 1018.55 174.79 1015.55 187.2 973.51 200.92 898.34 212.84 802.72 225.79 695.59 243.85 590.88 267.6 498.61 300.43 421.34 342.88 365.52 398.21 330.53 467.35 314.6 545.26 313.88 633.79 322.42 727.81 341.39 817.44 361.42 899.39 377.6 964 396.76 1003.65 407.9 1012.96 408.7 987.59 409.82 932.18 399.72 848.07 377.32 744.41 354.91 638.25 321.28 542.65 277.91 468.43 234.85 421.99 182.97 405.74 124.98 417.22 69.98 455.24 13.06 509.77 -40.43 571.85 -83.5 641.19 -114.94 704.58 -128.37 756.59 -122.74 801.73 -93.49 831.14 -39.54 845.39 29.4 850.62 114.02 843.72 204.72 828.14 283.92 807.44 346.34 782.54 379.74 756.62 374.09 729.34 329.53 703.69 249.29 681.29 143.45 658.88 32.6 640.79 -66.47 625.83 -146.06 609.49 -191.82 593.64 -200.99 575.52 -176.65 552.28 -121.81 522.29 -46.2 482.54 44.98 433.76 140.21 372.2 230.92 297.7 317.78 216.33 391.99 126.38 452.18 33.72 502.96 -51.69 541.69 -126.32 571.3 -180.76 594.96 -208.67 614.47 -205.18 632.94 -167.4 649.75 -101.83 668.7 -10.78 691.1 95.36 713.51 199.03 738.3 287.69 763.74 351.76 787.52 385.79 808.76 389.23 823.92 366.01 833.13 317.83 831.3 255.97 815.05 189.66 789.38 118.97 747.33 56.99 689.83 8.45 628.49 -31.33 559.82 -54.5 491.95 -62.42 439.67 -60.73 404.92 -47.58 397 -26.81 422.59 -0.95 481.1 27.87 569.33 56.4 677.06 86.24 792.45 113.2 898.29 135.6Q898.29 135.6 898.29 135.6" opacity="0.99">
		</path>
		<path d="M868.83 98.19C943.17 118.56 984.51 138.24 990.31 157.97 963.39 178.87 906.7 202.02 829.27 229.29 737.37 260.57 641.66 299.18 550.91 346.77 466.97 400.53 397.43 464.62 343.93 538.14 304.38 614.81 279.25 696.5 265.05 778.02 260.84 851.3 261.7 913.95 263.45 958.68 269.37 981.06 271.76 977.21 267.92 944.7 264.97 888.61 253.95 809.61 233.58 714.92 213.21 618.16 184.47 529.23 149.02 456.68 114.44 405.55 75 378.62 33.8 375.01 -3.24 394.55 -37.63 430.61 -64.82 476.71 -82.01 533.18 -86.11 589.27 -73.25 639.78 -46.44 688.9 -1.05 727.25 61.67 753.71 131.22 774.83 208.66 784.7 285.64 784.91 370.69 776.17 375.9 730.36 278.83 700.61 183.28 680.24 82.74 659.25 -9.86 637.05 -89.34 613.7 -143.06 586.99 -167.53 555.27 -164.85 519.76 -134.65 476.36 -83.27 423.85 -14.51 366.01 63.64 298.42 143.75 222.61 226.36 145.41 302.77 65.17 369.83 -12.5 432.41 -79.81 484.76 -134.14 527.53 -168.61 566.29 -179.94 598.22 -164.61 624.95 -121.34 650.38 -56.66 673 28.12 693.36 124.87 713.73 219.57 730.88 302.71 743.87 366.66 758.11 414.77 740.32 363.06 699.73 288.79 664.06 228.47 616.9 170.92 560.97 120.94 507.55 74.11 453.54 39.26 405.98 16.89 375.79 0.69 363.86 -4.37 376.09 -0.36 415.48 7.65 480.78 21.55 568.11 39.06 668.57 57.74 773.24 77.82 868.79 98.18Q868.83 98.19 868.83 98.19" opacity="0.95">
		</path>
		<path d="M839.33 125.75C907.47 144.08 949.06 165.82 961.92 191.08 948.17 217.16 908.73 248.26 849.7 285.12 775.39 324.46 693.36 371.23 610.75 425.58 528.7 482.74 454.56 547.06 391.2 616.57 336.24 685.03 293 754.1 260.22 819.13 235.21 874.2 217.22 917.5 203.47 943.86 193.73 951.3 184.55 936.9 173.67 899.52 163.83 844.23 150.25 771.02 131.92 685.42 113.59 598.14 91.38 516.47 66.66 446.99 42.97 393.45 18.81 358.62 -3.21 342.63 -21.22 345.73 -33.42 363.98 -36.66 393 -32.13 433.39 -15.21 477.08 15.72 519.58 55.06 564.56 107.47 603.36 170.44 633.92 233.96 662.52 299.55 681.91 360.42 692.18 420.53 700.46 399.12 680.04 308.33 655.2 222.97 636.88 132.96 614.11 47.98 586.96 -28.89 559.05 -86.91 525.39 -122.53 485.5 -137.43 443.47 -129.08 393.9 -101.14 337.05 -56.62 278.25 -0.05 213.13 62.7 144.13 131.85 77.6 200.18 12.18 263.89 -47.29 327.26 -95.39 383.49 -130.09 431.5 -146.63 477.71 -144.08 516.41 -119.69 547.79 -73.23 578.42 -10.83 603 67.1 621.33 154.37 639.66 239.98 650.87 316.92 654.81 379.29 655.32 436.17 608.93 428.24 560.78 378.83 525.32 332.88 483.31 285.53 438.18 241.1 399.44 195.62 364.61 157.6 339.17 128.69 330.31 102.59 338.4 86 366.74 78.43 415.79 73.33 484.25 75.57 568.2 84.06 660.25 93.37 753.97 107.42 839.33 125.75Q839.33 125.75 839.33 125.75" opacity="0.27">
		</path>
		<path d="M809.83 212.35C914.66 244.93 928.46 301.76 862.12 380.94 738.95 464.09 594.04 572 463.62 691.88 347.04 797.53 263.54 883.49 208.15 919.12 164.74 895.16 130.71 802.31 98.13 655.92 65.55 504.31 37.49 384.81 24.43 320.26 23.35 314.4 56 352.09 129.87 406.77 217.58 479.66 327.92 536.53 427.22 564.82 469.66 590.5 442.66 587.44 337.83 554.85 179.56 522.27 30.16 463.25 -66.64 381.1 -105.56 296.34 -74.43 188.62 0.79 73.02 107.15 -24.36 216.46 -96.61 306.4 -114.64 396.41 -73.97 460.69 32.31 493.27 183.92 525.87 330.3 523.68 436.36 490.14 484.21 456.67 472.47 398.21 421.07 334.55 358.12 302.03 280.95 305.45 223.9 368.24 197.22 488.93 174.51 651.52 179.76 809.79 212.34Q809.83 212.35 809.83 212.35" opacity="0.32">
		</path>
		<path d="M780.33 339.34C876.31 367.85 902.72 422.37 864.98 497.09 778.15 571.35 663.38 661.75 549.25 753.6 434.79 827.32 341.56 877.8 274.01 884.38 213.13 846.31 169.27 756.18 140.76 626.42 112.25 492.64 101.78 380.38 113.25 307.73 131.4 277.96 180.12 284.73 257.22 311.36 333.98 358.48 418.51 400.59 484.44 424.1 501.27 449.16 463.31 449.68 367.33 421.17 230.18 392.65 96.7 337.81 -1.04 263.35 -61.13 190.43 -66.68 103.82 -31.39 19.33 33.26 -44.66 111.05 -81.67 181.66 -72.82 256.73 -21.07 313.07 79.61 341.58 213.37 370.11 343.14 368.1 444.85 342.43 503.83 321.23 518.16 287.94 497.92 260.65 461.56 262.71 407.08 298.5 361.18 379.47 336.33 498.11 311.02 643.14 310.82 780.29 339.33Q780.33 339.34 780.33 339.34" opacity="0.35">
		</path>
		<path d="M750.83 479.4C836.63 503.83 871.31 549.76 857.1 610.18 804.14 667.75 723.09 732.96 634.46 792.77 537.55 835.38 451.14 855.28 384.37 839.91 319.6 793.56 273.46 709.42 249.02 596.92 224.58 481.45 224.16 379.46 246.57 304.55 271 258.58 319.26 240.55 384.14 241.45 468.31 271.18 504.92 308.25 396.83 282.92 280.62 258.48 165.16 213.7 72.78 155.9 2.04 101.64 -29.47 42.29 -27.05 -8.86 -1.76 -41.79 41.12 -49.68 86.67 -21.63 138.03 35.35 180.25 127.41 204.69 242.87 229.13 355.38 233.49 449.44 224.48 513.72 221.28 547 216.52 553.03 223.25 542.45 252.86 514.67 310.29 487.6 398.94 472.38 509.22 454.31 634.58 454.95 750.79 479.39Q750.83 479.4 750.83 479.4" opacity="0.92">
		</path>
		<path d="M721.29 602.35C795.64 622.71 834.27 656.36 837.75 697.36 813.49 735 765.07 773.31 705.71 802.86 635.73 819.07 568.28 815.73 513 786.26 456.8 737.27 415.92 662.1 395.55 567.41 375.19 470.64 377.26 381.6 398.17 309.94 418.15 255.89 453.83 221.24 497.11 202.34 543.19 197.03 524.08 193.79 426.29 169.87 330.74 149.51 234.77 117.8 153 80.56 81.43 47 35.83 15.03 15.89 -6.25 10.69 -14.04 23.07 -1 44.4 38.12 70.66 94.85 96.89 175.64 117.26 272.41 137.62 367.1 150.2 450.53 159.23 514.44 173.2 558.83 192.6 583.78 224.49 594.26 271.12 591.4 338.32 584.88 424.82 582.53 521.51 576.82 625.74 581.98 721.29 602.35Q721.29 602.35 721.29 602.35" opacity="0.78">
		</path>
		<path d="M691.82 681.77C796.65 714.35 804.85 760.29 751.14 780.52 661.54 766.95 575.7 684.28 543.11 537.87 510.53 386.29 537.38 264.6 584.27 196.04 595.27 160.18 560.65 138.97 455.82 106.39 297.55 73.81 161.92 36.02 94.67 29.16 57.16 55.02 68.78 150.29 101.36 301.87 133.95 448.28 181.32 557.37 261.54 613.65 371.49 636.12 533.52 649.18 691.78 681.76Q691.82 681.77 691.82 681.77" opacity="0.40">
		</path>
		<path d="M662.33 700.49C748.12 724.92 776.98 738.62 762.35 725.92 725 696.29 678.94 620.91 654.5 508.42 630.06 392.95 631.87 290.32 637.19 220.97 619.79 167.15 571.12 130.52 485.33 106.09 369.12 81.65 264.52 74.02 201.83 95.81 149.41 133.13 136.66 215.95 161.1 331.42 185.54 443.91 242.54 539.11 326.99 600.76 421.71 645.49 546.12 676.05 662.33 700.49Q662.33 700.49 662.33 700.49" opacity="0.41">
		</path>
		<path d="M632.83 654.53C737.66 687.11 734.03 625.3 701.45 478.92 668.86 327.29 619.66 201.65 514.83 169.07 356.53 136.48 248.72 209.29 281.31 360.92 313.89 507.3 474.53 621.94 632.83 654.53Q632.83 654.53 632.83 654.53" opacity="0.10">
		</path>
	</g>
</svg>
